<svg xmlns="http://www.w3.org/2000/svg" width="17" height="17" fill="none"><path fill="#7AC751" fill-rule="evenodd" d="M7.182 1.465c.519 0 1.016.208 1.383.58l5.576 5.644a1.98 1.98 0 0 1 .573 1.4 1.998 1.998 0 0 1-.573 1.4l-3.66 3.705a1.954 1.954 0 0 1-1.383.58 1.935 1.935 0 0 1-1.383-.58L2.138 8.549a1.98 1.98 0 0 1-.572-1.4V3.445c0-.525.206-1.028.572-1.4.367-.37.864-.579 1.383-.579h3.661Zm0 1.33H3.521a.636.636 0 0 0-.453.19.652.652 0 0 0-.187.459V7.15c0 .171.067.336.187.458l5.577 5.645c.25.253.656.253.906 0l3.66-3.706a.649.649 0 0 0 .14-.706.649.649 0 0 0-.14-.21L7.636 2.985a.64.64 0 0 0-.454-.19h.001ZM5.51 4.128c.349 0 .683.14.93.39a1.34 1.34 0 0 1 0 1.882 1.307 1.307 0 0 1-1.86 0 1.34 1.34 0 0 1 0-1.882c.247-.25.582-.39.93-.39Z" clip-rule="evenodd"/></svg>