<svg xmlns="http://www.w3.org/2000/svg" width="22" height="24" fill="none"><path fill="#555" d="M14.618 11.128a6.15 6.15 0 0 0 2.536-4.974A6.16 6.16 0 0 0 11 0a6.16 6.16 0 0 0-6.154 6.154c0 2.042 1 3.854 2.536 4.974C3.564 12.59.846 16.291.846 20.615A3.388 3.388 0 0 0 4.231 24h13.538a3.388 3.388 0 0 0 3.385-3.385c0-4.324-2.718-8.026-6.536-9.487ZM6.692 6.154A4.313 4.313 0 0 1 11 1.846a4.313 4.313 0 0 1 4.308 4.308A4.313 4.313 0 0 1 11 10.462a4.313 4.313 0 0 1-4.308-4.308Zm11.077 16H4.231a1.54 1.54 0 0 1-1.539-1.539c0-4.58 3.727-8.307 8.308-8.307 4.581 0 8.308 3.726 8.308 8.307a1.54 1.54 0 0 1-1.539 1.539Z"/></svg>