<svg xmlns="http://www.w3.org/2000/svg" width="106" height="105" fill="none"><g filter="url(#a)"><ellipse cx="52.777" cy="50.495" fill="#fff" rx="19.424" ry="19.447"/></g><g fill="#757575" clip-path="url(#b)"><path d="M61.68 56.167H60.06v-1.62a.81.81 0 0 0-1.382-.574.811.811 0 0 0-.237.573v1.62h-1.618a.809.809 0 0 0-.573 1.384.809.809 0 0 0 .573.238h1.618v1.62a.81.81 0 0 0 1.382.573.81.81 0 0 0 .237-.573v-1.62h1.619a.809.809 0 0 0 .572-1.384.809.809 0 0 0-.572-.237Z"/><path d="M60.061 45.633h-2.428c0-1.29-.512-2.526-1.422-3.438a4.853 4.853 0 0 0-6.868 0 4.865 4.865 0 0 0-1.422 3.438h-2.428a2.426 2.426 0 0 0-2.428 2.43v8.104a4.059 4.059 0 0 0 1.186 2.863 4.05 4.05 0 0 0 2.86 1.188h7.285a.809.809 0 0 0 .809-.81.81.81 0 0 0-.81-.81h-7.284a2.427 2.427 0 0 1-2.428-2.431v-8.103a.81.81 0 0 1 .81-.81h2.428v1.62a.81.81 0 0 0 1.382.573.81.81 0 0 0 .236-.573v-1.62h6.475v1.62a.81.81 0 0 0 1.382.573.81.81 0 0 0 .237-.573v-1.62h2.428a.809.809 0 0 1 .81.81v4.051a.81.81 0 0 0 1.381.573.81.81 0 0 0 .237-.573v-4.051a2.432 2.432 0 0 0-2.428-2.431Zm-10.522 0a3.243 3.243 0 0 1 3.238-3.241 3.235 3.235 0 0 1 3.237 3.24H49.54Z"/></g><defs><clipPath id="b"><path fill="#fff" d="M43.065 40.771h19.424v19.447H43.065z"/></clipPath><filter id="a" width="104.849" height="104.895" x=".353" y=".048" color-interpolation-filters="sRGB" filterUnits="userSpaceOnUse"><feFlood flood-opacity="0" result="BackgroundImageFix"/><feColorMatrix in="SourceAlpha" result="hardAlpha" values="0 0 0 0 0 0 0 0 0 0 0 0 0 0 0 0 0 0 127 0"/><feOffset dy="2"/><feGaussianBlur stdDeviation="16.5"/><feComposite in2="hardAlpha" operator="out"/><feColorMatrix values="0 0 0 0 0 0 0 0 0 0 0 0 0 0 0 0 0 0 0.09 0"/><feBlend in2="BackgroundImageFix" result="effect1_dropShadow_2_371"/><feBlend in="SourceGraphic" in2="effect1_dropShadow_2_371" result="shape"/></filter></defs></svg>