<svg xmlns="http://www.w3.org/2000/svg" width="106" height="106" fill="none"><g filter="url(#a)"><ellipse cx="52.777" cy="50.849" fill="#fff" rx="19.424" ry="19.447"/></g><path fill="#757575" d="m52.777 60.156-8.24-8.25a5.838 5.838 0 0 1-.001-8.252 5.824 5.824 0 0 1 8.241 0 5.828 5.828 0 0 1 8.24 0 5.844 5.844 0 0 1 0 8.25l-8.24 8.252Zm-4.12-16.266a3.881 3.881 0 0 0-3.59 2.401 3.894 3.894 0 0 0 .842 4.24l6.868 6.875 6.867-6.876a3.89 3.89 0 0 0-3.407-6.608 3.881 3.881 0 0 0-2.635 1.817l-.825 1.335-.826-1.335a3.802 3.802 0 0 0-3.295-1.847v-.002Z"/><defs><filter id="a" width="104.849" height="104.895" x=".353" y=".402" color-interpolation-filters="sRGB" filterUnits="userSpaceOnUse"><feFlood flood-opacity="0" result="BackgroundImageFix"/><feColorMatrix in="SourceAlpha" result="hardAlpha" values="0 0 0 0 0 0 0 0 0 0 0 0 0 0 0 0 0 0 127 0"/><feOffset dy="2"/><feGaussianBlur stdDeviation="16.5"/><feComposite in2="hardAlpha" operator="out"/><feColorMatrix values="0 0 0 0 0 0 0 0 0 0 0 0 0 0 0 0 0 0 0.09 0"/><feBlend in2="BackgroundImageFix" result="effect1_dropShadow_2_368"/><feBlend in="SourceGraphic" in2="effect1_dropShadow_2_368" result="shape"/></filter></defs></svg>