<svg xmlns="http://www.w3.org/2000/svg" width="106" height="106" fill="none"><g filter="url(#a)"><ellipse cx="52.777" cy="51.141" fill="#fff" rx="19.424" ry="19.447"/></g><g clip-path="url(#b)"><path fill="#757575" stroke="#fff" stroke-width=".3" d="M46.865 45.437a7.993 7.993 0 0 1 2.586-1.86c3.13-1.41 6.939-.683 9.307 2.022l1.635-1.401c.091-.078.237-.006.246.116l.406 5.488c.005.091-.079.163-.165.142l-5.35-1.248c-.122-.03-.168-.183-.077-.26l1.633-1.4a5.794 5.794 0 0 0-6.11-1.676 5.72 5.72 0 0 0-2.22 1.31 5.782 5.782 0 0 0-1.687 3.111 1.102 1.102 0 0 1-1.336.87 1.113 1.113 0 0 1-.832-1.303 7.911 7.911 0 0 1 1.964-3.91Zm11.456 7.037a5.712 5.712 0 0 1-1.687 3.11 5.757 5.757 0 0 1-2.22 1.311c-2.128.68-4.548.098-6.11-1.677l1.633-1.398c.09-.078.042-.233-.077-.26l-5.353-1.252c-.09-.019-.174.053-.165.142l.404 5.485c.011.125.154.194.245.116l1.636-1.401c2.364 2.707 6.176 3.438 9.306 2.023a8.072 8.072 0 0 0 2.587-1.862 7.87 7.87 0 0 0 1.966-3.908 1.113 1.113 0 0 0-.831-1.302 1.105 1.105 0 0 0-1.334.873Z"/></g><defs><clipPath id="b"><path fill="#fff" d="m53.842 36.314 13.641 15.961-15.942 13.658-13.642-15.96z"/></clipPath><filter id="a" width="104.849" height="104.895" x=".353" y=".693" color-interpolation-filters="sRGB" filterUnits="userSpaceOnUse"><feFlood flood-opacity="0" result="BackgroundImageFix"/><feColorMatrix in="SourceAlpha" result="hardAlpha" values="0 0 0 0 0 0 0 0 0 0 0 0 0 0 0 0 0 0 127 0"/><feOffset dy="2"/><feGaussianBlur stdDeviation="16.5"/><feComposite in2="hardAlpha" operator="out"/><feColorMatrix values="0 0 0 0 0 0 0 0 0 0 0 0 0 0 0 0 0 0 0.09 0"/><feBlend in2="BackgroundImageFix" result="effect1_dropShadow_2_377"/><feBlend in="SourceGraphic" in2="effect1_dropShadow_2_377" result="shape"/></filter></defs></svg>