<svg xmlns="http://www.w3.org/2000/svg" width="106" height="106" fill="none"><g filter="url(#a)"><ellipse cx="52.777" cy="50.786" fill="#fff" rx="19.424" ry="19.447"/></g><g fill="#757575" clip-path="url(#b)"><path d="M61.9 48.695c-1.256-2.047-4.111-5.48-9.123-5.48-5.011 0-7.867 3.433-9.122 5.48a3.98 3.98 0 0 0 0 4.183c1.255 2.047 4.11 5.48 9.122 5.48 5.011 0 7.867-3.433 9.122-5.48a3.981 3.981 0 0 0 0-4.183Zm-1.38 3.334c-1.079 1.756-3.519 4.71-7.743 4.71s-6.664-2.954-7.742-4.71a2.366 2.366 0 0 1 0-2.486c1.078-1.755 3.518-4.708 7.742-4.708s6.664 2.95 7.742 4.709a2.366 2.366 0 0 1 0 2.486Z"/><path d="M52.777 46.735a4.043 4.043 0 0 0-3.739 2.501 4.056 4.056 0 0 0 .877 4.415 4.045 4.045 0 0 0 6.909-2.865 4.059 4.059 0 0 0-1.187-2.863 4.049 4.049 0 0 0-2.86-1.188Zm0 6.482a2.426 2.426 0 0 1-2.243-1.5 2.433 2.433 0 0 1 1.77-3.315 2.425 2.425 0 0 1 2.492 1.034 2.433 2.433 0 0 1-2.02 3.781Z"/></g><defs><clipPath id="b"><path fill="#fff" d="M43.065 41.063h19.424V60.51H43.065z"/></clipPath><filter id="a" width="104.849" height="104.895" x=".353" y=".339" color-interpolation-filters="sRGB" filterUnits="userSpaceOnUse"><feFlood flood-opacity="0" result="BackgroundImageFix"/><feColorMatrix in="SourceAlpha" result="hardAlpha" values="0 0 0 0 0 0 0 0 0 0 0 0 0 0 0 0 0 0 127 0"/><feOffset dy="2"/><feGaussianBlur stdDeviation="16.5"/><feComposite in2="hardAlpha" operator="out"/><feColorMatrix values="0 0 0 0 0 0 0 0 0 0 0 0 0 0 0 0 0 0 0.09 0"/><feBlend in2="BackgroundImageFix" result="effect1_dropShadow_2_382"/><feBlend in="SourceGraphic" in2="effect1_dropShadow_2_382" result="shape"/></filter></defs></svg>